<svg height="2350" width="720" xmlns="http://www.w3.org/2000/svg">
<rect height="2350" fill="#555" width="720"></rect>
<text fill="#7f7" font-family="Courier New" font-size="12" xml:space="preserve">
<tspan x="10" y="26">18 megabytes installed</tspan>
<tspan x="10" y="42"></tspan>
<tspan x="10" y="58">node_modules</tspan>
<tspan x="10" y="74">└─┬ gulp-modernizr@1.0.0-alpha </tspan>
<tspan x="10" y="90">  ├─┬ customizr@1.0.0-alpha </tspan>
<tspan x="10" y="106">  │ ├── colors@0.6.2 </tspan>
<tspan x="10" y="122">  │ ├── deep-equal@0.1.2 </tspan>
<tspan x="10" y="138">  │ ├─┬ glob@3.2.11 </tspan>
<tspan x="10" y="154">  │ │ ├── inherits@2.0.3 </tspan>
<tspan x="10" y="170">  │ │ └─┬ minimatch@0.3.0 </tspan>
<tspan x="10" y="186">  │ │   ├── lru-cache@2.7.3 </tspan>
<tspan x="10" y="202">  │ │   └── sigmund@1.0.1 </tspan>
<tspan x="10" y="218">  │ ├── mkdirp@0.3.5 </tspan>
<tspan x="10" y="234">  │ ├─┬ modernizr@3.5.0 </tspan>
<tspan x="10" y="250">  │ │ ├─┬ doctrine@1.2.3 </tspan>
<tspan x="10" y="266">  │ │ │ ├── esutils@2.0.2 </tspan>
<tspan x="10" y="282">  │ │ │ └── isarray@1.0.0 </tspan>
<tspan x="10" y="298">  │ │ ├── file@0.2.2 </tspan>
<tspan x="10" y="314">  │ │ ├── find-parent-dir@0.3.0 </tspan>
<tspan x="10" y="330">  │ │ ├── lodash@4.17.4 </tspan>
<tspan x="10" y="346">  │ │ ├── mkdirp@0.5.1 </tspan>
<tspan x="10" y="362">  │ │ ├─┬ remarkable@1.7.1 </tspan>
<tspan x="10" y="378">  │ │ │ ├─┬ argparse@0.1.16 </tspan>
<tspan x="10" y="394">  │ │ │ │ ├── underscore@1.7.0 </tspan>
<tspan x="10" y="410">  │ │ │ │ └── underscore.string@2.4.0 </tspan>
<tspan x="10" y="426">  │ │ │ └── autolinker@0.15.3 </tspan>
<tspan x="10" y="442">  │ │ ├── requirejs@2.1.22 </tspan>
<tspan x="10" y="458">  │ │ └─┬ yargs@7.0.2 </tspan>
<tspan x="10" y="474">  │ │   ├── camelcase@3.0.0 </tspan>
<tspan x="10" y="490">  │ │   ├─┬ cliui@3.2.0 </tspan>
<tspan x="10" y="506">  │ │   │ ├─┬ strip-ansi@3.0.1 </tspan>
<tspan x="10" y="522">  │ │   │ │ └── ansi-regex@2.1.1 </tspan>
<tspan x="10" y="538">  │ │   │ └── wrap-ansi@2.1.0 </tspan>
<tspan x="10" y="554">  │ │   ├── decamelize@1.2.0 </tspan>
<tspan x="10" y="570">  │ │   ├── get-caller-file@1.0.2 </tspan>
<tspan x="10" y="586">  │ │   ├─┬ os-locale@1.4.0 </tspan>
<tspan x="10" y="602">  │ │   │ └─┬ lcid@1.0.0 </tspan>
<tspan x="10" y="618">  │ │   │   └── invert-kv@1.0.0 </tspan>
<tspan x="10" y="634">  │ │   ├─┬ read-pkg-up@1.0.1 </tspan>
<tspan x="10" y="650">  │ │   │ ├─┬ find-up@1.1.2 </tspan>
<tspan x="10" y="666">  │ │   │ │ ├── path-exists@2.1.0 </tspan>
<tspan x="10" y="682">  │ │   │ │ └─┬ pinkie-promise@2.0.1 </tspan>
<tspan x="10" y="698">  │ │   │ │   └── pinkie@2.0.4 </tspan>
<tspan x="10" y="714">  │ │   │ └─┬ read-pkg@1.1.0 </tspan>
<tspan x="10" y="730">  │ │   │   ├─┬ load-json-file@1.1.0 </tspan>
<tspan x="10" y="746">  │ │   │   │ ├── graceful-fs@4.1.11 </tspan>
<tspan x="10" y="762">  │ │   │   │ ├─┬ parse-json@2.2.0 </tspan>
<tspan x="10" y="778">  │ │   │   │ │ └─┬ error-ex@1.3.1 </tspan>
<tspan x="10" y="794">  │ │   │   │ │   └── is-arrayish@0.2.1 </tspan>
<tspan x="10" y="810">  │ │   │   │ ├── pify@2.3.0 </tspan>
<tspan x="10" y="826">  │ │   │   │ └─┬ strip-bom@2.0.0 </tspan>
<tspan x="10" y="842">  │ │   │   │   └── is-utf8@0.2.1 </tspan>
<tspan x="10" y="858">  │ │   │   └── path-type@1.1.0 </tspan>
<tspan x="10" y="874">  │ │   ├── require-directory@2.1.1 </tspan>
<tspan x="10" y="890">  │ │   ├── require-main-filename@1.0.1 </tspan>
<tspan x="10" y="906">  │ │   ├── set-blocking@2.0.0 </tspan>
<tspan x="10" y="922">  │ │   ├─┬ string-width@1.0.2 </tspan>
<tspan x="10" y="938">  │ │   │ ├── code-point-at@1.1.0 </tspan>
<tspan x="10" y="954">  │ │   │ └─┬ is-fullwidth-code-point@1.0.0 </tspan>
<tspan x="10" y="970">  │ │   │   └── number-is-nan@1.0.1 </tspan>
<tspan x="10" y="986">  │ │   ├── which-module@1.0.0 </tspan>
<tspan x="10" y="1002">  │ │   ├── y18n@3.2.1 </tspan>
<tspan x="10" y="1018">  │ │   └── yargs-parser@5.0.0 </tspan>
<tspan x="10" y="1034">  │ ├─┬ nopt@2.1.2 </tspan>
<tspan x="10" y="1050">  │ │ └── abbrev@1.1.0 </tspan>
<tspan x="10" y="1066">  │ ├─┬ optimist@0.6.1 </tspan>
<tspan x="10" y="1082">  │ │ ├── minimist@0.0.8 </tspan>
<tspan x="10" y="1098">  │ │ └── wordwrap@0.0.3 </tspan>
<tspan x="10" y="1114">  │ ├── promised-io@0.3.5 </tspan>
<tspan x="10" y="1130">  │ ├── underscore@1.5.2 </tspan>
<tspan x="10" y="1146">  │ └── win-spawn@2.0.0 </tspan>
<tspan x="10" y="1162">  ├─┬ grunt-legacy-log@0.1.3 </tspan>
<tspan x="10" y="1178">  │ ├── grunt-legacy-log-utils@0.1.1 </tspan>
<tspan x="10" y="1194">  │ ├── hooker@0.2.3 </tspan>
<tspan x="10" y="1210">  │ ├── lodash@2.4.2 </tspan>
<tspan x="10" y="1226">  │ └── underscore.string@2.3.3 </tspan>
<tspan x="10" y="1242">  ├─┬ gulp-util@2.2.20 </tspan>
<tspan x="10" y="1258">  │ ├─┬ chalk@0.5.1 </tspan>
<tspan x="10" y="1274">  │ │ ├── ansi-styles@1.1.0 </tspan>
<tspan x="10" y="1290">  │ │ ├── escape-string-regexp@1.0.5 </tspan>
<tspan x="10" y="1306">  │ │ ├─┬ has-ansi@0.1.0 </tspan>
<tspan x="10" y="1322">  │ │ │ └── ansi-regex@0.2.1 </tspan>
<tspan x="10" y="1338">  │ │ ├─┬ strip-ansi@0.3.0 </tspan>
<tspan x="10" y="1354">  │ │ │ └── ansi-regex@0.2.1 </tspan>
<tspan x="10" y="1370">  │ │ └── supports-color@0.2.0 </tspan>
<tspan x="10" y="1386">  │ ├─┬ dateformat@1.0.12 </tspan>
<tspan x="10" y="1402">  │ │ ├── get-stdin@4.0.1 </tspan>
<tspan x="10" y="1418">  │ │ └─┬ meow@3.7.0 </tspan>
<tspan x="10" y="1434">  │ │   ├─┬ camelcase-keys@2.1.0 </tspan>
<tspan x="10" y="1450">  │ │   │ └── camelcase@2.1.1 </tspan>
<tspan x="10" y="1466">  │ │   ├─┬ loud-rejection@1.6.0 </tspan>
<tspan x="10" y="1482">  │ │   │ ├─┬ currently-unhandled@0.4.1 </tspan>
<tspan x="10" y="1498">  │ │   │ │ └── array-find-index@1.0.2 </tspan>
<tspan x="10" y="1514">  │ │   │ └── signal-exit@3.0.2 </tspan>
<tspan x="10" y="1530">  │ │   ├── map-obj@1.0.1 </tspan>
<tspan x="10" y="1546">  │ │   ├── minimist@1.2.0 </tspan>
<tspan x="10" y="1562">  │ │   ├─┬ normalize-package-data@2.3.6 </tspan>
<tspan x="10" y="1578">  │ │   │ ├── hosted-git-info@2.4.2 </tspan>
<tspan x="10" y="1594">  │ │   │ ├─┬ is-builtin-module@1.0.0 </tspan>
<tspan x="10" y="1610">  │ │   │ │ └── builtin-modules@1.1.1 </tspan>
<tspan x="10" y="1626">  │ │   │ ├── semver@5.3.0 </tspan>
<tspan x="10" y="1642">  │ │   │ └─┬ validate-npm-package-license@3.0.1 </tspan>
<tspan x="10" y="1658">  │ │   │   ├─┬ spdx-correct@1.0.2 </tspan>
<tspan x="10" y="1674">  │ │   │   │ └── spdx-license-ids@1.2.2 </tspan>
<tspan x="10" y="1690">  │ │   │   └── spdx-expression-parse@1.0.4 </tspan>
<tspan x="10" y="1706">  │ │   ├── object-assign@4.1.1 </tspan>
<tspan x="10" y="1722">  │ │   ├─┬ redent@1.0.0 </tspan>
<tspan x="10" y="1738">  │ │   │ ├─┬ indent-string@2.1.0 </tspan>
<tspan x="10" y="1754">  │ │   │ │ └─┬ repeating@2.0.1 </tspan>
<tspan x="10" y="1770">  │ │   │ │   └── is-finite@1.0.2 </tspan>
<tspan x="10" y="1786">  │ │   │ └── strip-indent@1.0.1 </tspan>
<tspan x="10" y="1802">  │ │   └── trim-newlines@1.0.0 </tspan>
<tspan x="10" y="1818">  │ ├── lodash._reinterpolate@2.4.1 </tspan>
<tspan x="10" y="1834">  │ ├─┬ lodash.template@2.4.1 </tspan>
<tspan x="10" y="1850">  │ │ ├── lodash._escapestringchar@2.4.1 </tspan>
<tspan x="10" y="1866">  │ │ ├─┬ lodash.defaults@2.4.1 </tspan>
<tspan x="10" y="1882">  │ │ │ └── lodash._objecttypes@2.4.1 </tspan>
<tspan x="10" y="1898">  │ │ ├─┬ lodash.escape@2.4.1 </tspan>
<tspan x="10" y="1914">  │ │ │ ├─┬ lodash._escapehtmlchar@2.4.1 </tspan>
<tspan x="10" y="1930">  │ │ │ │ └── lodash._htmlescapes@2.4.1 </tspan>
<tspan x="10" y="1946">  │ │ │ └── lodash._reunescapedhtml@2.4.1 </tspan>
<tspan x="10" y="1962">  │ │ ├─┬ lodash.keys@2.4.1 </tspan>
<tspan x="10" y="1978">  │ │ │ ├── lodash._isnative@2.4.1 </tspan>
<tspan x="10" y="1994">  │ │ │ ├── lodash._shimkeys@2.4.1 </tspan>
<tspan x="10" y="2010">  │ │ │ └── lodash.isobject@2.4.1 </tspan>
<tspan x="10" y="2026">  │ │ ├── lodash.templatesettings@2.4.1 </tspan>
<tspan x="10" y="2042">  │ │ └── lodash.values@2.4.1 </tspan>
<tspan x="10" y="2058">  │ ├── minimist@0.2.0 </tspan>
<tspan x="10" y="2074">  │ ├─┬ multipipe@0.1.2 </tspan>
<tspan x="10" y="2090">  │ │ └─┬ duplexer2@0.0.2 </tspan>
<tspan x="10" y="2106">  │ │   └─┬ readable-stream@1.1.14 </tspan>
<tspan x="10" y="2122">  │ │     └── isarray@0.0.1 </tspan>
<tspan x="10" y="2138">  │ ├─┬ through2@0.5.1 </tspan>
<tspan x="10" y="2154">  │ │ ├─┬ readable-stream@1.0.34 </tspan>
<tspan x="10" y="2170">  │ │ │ └── isarray@0.0.1 </tspan>
<tspan x="10" y="2186">  │ │ └── xtend@3.0.0 </tspan>
<tspan x="10" y="2202">  │ └─┬ vinyl@0.2.3 </tspan>
<tspan x="10" y="2218">  │   └── clone-stats@0.0.1 </tspan>
<tspan x="10" y="2234">  └─┬ through2@0.4.2 </tspan>
<tspan x="10" y="2250">    ├─┬ readable-stream@1.0.34 </tspan>
<tspan x="10" y="2266">    │ ├── core-util-is@1.0.2 </tspan>
<tspan x="10" y="2282">    │ ├── isarray@0.0.1 </tspan>
<tspan x="10" y="2298">    │ └── string_decoder@0.10.31 </tspan>
<tspan x="10" y="2314">    └─┬ xtend@2.1.2 </tspan>
<tspan x="10" y="2330">      └── object-keys@0.4.0</tspan>
</text>
</svg>
